<?xml version="1.0" encoding="utf-8"?>
<!-- Generator: Adobe Illustrator 16.0.0, SVG Export Plug-In . SVG Version: 6.00 Build 0)  -->
<!DOCTYPE svg PUBLIC "-//W3C//DTD SVG 1.1//EN" "http://www.w3.org/Graphics/SVG/1.1/DTD/svg11.dtd">
<svg version="1.1" id="Layer_1" xmlns="http://www.w3.org/2000/svg" xmlns:xlink="http://www.w3.org/1999/xlink" x="0px" y="0px"
	 width="141px" height="127px" viewBox="0 0 141 127" enable-background="new 0 0 141 127" xml:space="preserve">
<g>
	<path fill="#FFFFFF" d="M24.723,64.613c-0.443,1.592-1.77,7.65-2.122,9.153c0.796-1.414,1.857-3.205,3.184-5.373
		c1.327-2.166,2.785-4.245,4.378-6.235c1.592-1.99,3.204-3.714,4.842-5.173c1.635-1.459,3.117-2.189,4.443-2.189
		c0.531,0,1.128,0.178,1.791,0.531c0.52,0.276,0.982,0.662,1.411,1.061c0.399,0.372,0.835,0.705,0.985,1.256
		c0.199,0.732-0.004,1.613-0.207,2.326c-0.179,0.62-0.354,1.194-0.531,1.725c-2.035,6.633-3.737,12.293-5.107,16.98
		c-1.372,4.688-2.056,8.888-2.056,12.602c0,1.681,0.087,2.985,0.266,3.914c0.176,0.929,0.352,1.637,0.53,2.123
		c0.176,0.487,0.353,0.841,0.53,1.061c0.177,0.22,0.266,0.375,0.266,0.464c0,0.176-0.155,0.641-0.464,1.393
		c-0.312,0.75-0.952,1.48-1.924,2.188c0.087,0,0.133,0.043,0.133,0.133l-0.133-0.133c-0.179,0-0.354,0.043-0.531,0.133
		c-0.178,0.087-0.354,0.133-0.53,0.133c-1.062,0-2.102-1.062-3.117-3.184c-1.018-2.122-1.525-4.862-1.525-8.225
		c0-1.944,0.199-4.199,0.597-6.765c0.398-2.564,1.082-5.526,2.057-8.888c0.53-2.033,1.26-4.066,2.188-6.102
		c0.929-2.033,1.791-4.421,2.587-7.164c-2.036,1.771-3.804,3.648-5.307,5.638c-1.307,1.729-2.86,3.726-4.121,5.488
		c0,0-1.961,3.154-3.891,7.172c0,0-4.09,8.635-4.392,15.927c-0.066,1.591-0.132,2.806-0.265,3.648
		c-0.133,0.839-0.394,1.398-0.796,1.658c-1.016,0.657-3.2,0.36-3.2,0.36c-1.493-0.193-2.172-1.024-2.172-2.616
		c0-1.061,0.045-2.321,0.133-3.781c0.089-1.459,0.288-3.36,0.597-5.704c0.311-2.342,0.775-5.194,1.393-8.556
		c0.62-3.36,1.313-7.354,2.375-12.218c0,0,0.392-1.791,0.676-2.904c1.243-4.861,2.521-9.618,3.847-14.261s2.564-8.776,3.714-12.403
		c1.148-3.625,2.143-6.633,2.985-9.021c0.287-0.816,0.551-1.64,0.83-2.458c0.254-0.742,0.479-1.534,0.861-2.223
		c0.182-0.328,0.465-0.635,0.804-0.807c0.648-0.329,1.441-0.295,2.127-0.117c1.183,0.306,2.609,0.844,2.729,2.269
		c0.065,0.773-0.186,1.532-0.412,2.26c-0.24,0.775-0.498,1.545-0.75,2.317c-0.143,0.438-0.284,0.875-0.42,1.315
		c-0.602,1.997-1.237,3.984-1.862,5.975c-0.197,0.628-0.394,1.256-0.592,1.884c-1.018,3.229-2.122,6.832-3.316,10.812"/>
	<path fill="#FFFFFF" d="M51.118,101.778 M60.145,93.267c-0.667,1.566-1.802,2.875-2.873,4.176c-0.977,1.188-2.001,2.251-3.362,3
		c-0.375,0.207-0.762,0.392-1.158,0.556c-0.423,0.175-0.856,0.329-1.291,0.474c-1.598,0.535-3.525,0.938-5.161,0.357
		c-1.429-0.507-2.409-1.7-3.135-2.98c-0.402-0.708-0.76-1.447-1.088-2.191c-0.828-1.876-1.358-3.82-1.608-5.856
		c-0.071-0.579-0.124-1.16-0.162-1.742c-0.042-0.631-0.061-1.264-0.061-1.896c0-5.658,0.709-10.589,2.122-14.791
		c1.414-4.199,2.985-7.671,4.71-10.414c1.725-2.74,3.359-4.775,4.908-6.102c1.546-1.327,2.454-1.99,2.719-1.99
		c0.441,0,0.751,0.089,0.929,0.265c0.266,0,0.773,0.156,1.525,0.464c0.751,0.311,1.526,0.929,2.322,1.857s1.502,2.211,2.122,3.847
		c0.618,1.638,0.929,3.781,0.929,6.434c0,1.505-0.354,3.097-1.062,4.775c-0.709,1.681-1.638,3.273-2.785,4.776
		c-1.15,1.505-2.374,2.941-3.914,3.979c-4.678,3.155-8.025,3.449-8.025,3.449s-0.354,0.398-0.53,0.928
		c-0.179,0.531-0.312,1.15-0.398,1.857c-0.089,0.709-0.133,1.438-0.133,2.189c0,0.752,0,1.306,0,1.658
		c0,0.53,0.066,1.216,0.199,2.056c0.133,0.841,0.332,1.704,0.597,2.586c0.266,0.885,0.598,1.638,0.995,2.255
		c0.398,0.62,0.862,0.929,1.393,0.929c1.327,0,2.674-0.485,4.047-1.459c1.37-0.972,2.54-1.943,3.513-2.917
		c1.183-1.183,2.375-2.511,3.075-4.047c0.208-0.458,0.35-0.943,0.575-1.393c0.22-0.441,0.419-0.839,0.597-1.194l-0.133,0.266v0.265
		l0.133,0.531l0.133-0.133l0.398-0.663v-0.266l-0.398-0.265l0.133-0.265c0.087-0.266,0.176-0.398,0.266-0.398v0.265v-0.133
		l0.132-0.265v0.133l0.133-0.266v0.531l-0.133-0.133c-0.089,0-0.132,0.089-0.132,0.266v0.132v-0.132
		c0.087,0,0.132,0.089,0.132,0.265l0.133-0.133l-0.133,0.398h-0.132v0.266l0.265-0.664l0.398-0.265l0.133-0.531
		c0.176-0.352,0.352-0.618,0.53-0.796l0.266-0.265h-0.133l0.133-0.266l0.265-0.132c0.531,0,0.796,0.178,0.796,0.53
		c0,0.089-0.066,0.245-0.198,0.464c-0.133,0.222-0.288,0.421-0.465,0.597c0,0.089,0.021,0.178,0.066,0.265
		c0.044,0.089,0.066,0.178,0.066,0.266c0-0.087-0.133,0-0.398,0.265c0,0.089,0.021,0.178,0.066,0.265
		c0.044,0.089,0.066,0.178,0.066,0.266c-0.089,0.178-0.178,0.288-0.265,0.332c-0.09,0.045-0.179,0.112-0.266,0.199v0.664v0.265
		h-0.266l-0.397,1.459l-0.398,0.265v0.398l-0.397,0.531 M47.012,81.062l0.796-0.531c2.299-1.414,4.245-3.337,5.837-5.771
		c1.592-2.431,2.388-5.327,2.388-8.689c0-1.944-0.354-3.492-1.062-4.643c-0.796,0.974-1.747,2.5-2.852,4.577
		c-1.107,2.079-2.278,4.975-3.516,8.689c-0.266,0.974-0.554,1.99-0.862,3.051c-0.312,1.062-0.597,2.212-0.862,3.449"/>
	<path fill="#FFFFFF" d="M85.245,84.788c-0.057,0.143-0.113,0.287-0.169,0.43c-0.308,0.787-0.613,1.574-0.927,2.358
		c-0.479,1.196-1.051,2.362-1.575,3.539c-0.045,0.102-0.089,0.205-0.136,0.306c-1.672,3.547-2.129,7.151-2.129,7.151
		c0,0.972,0,1.592,0,1.857c0,0.883,0.043,1.37,0.133,1.459c0,0.265-0.133,0.485-0.398,0.663c-0.178,0.176-0.51,0.309-0.995,0.398
		c-0.486,0.087-1.216,0.133-2.188,0.133c-1.592,0-2.477-0.576-2.653-1.725c-0.178-1.15-0.265-3.005-0.265-5.572
		c0-2.298,0.043-4.178,0.132-5.638c0.088-1.459,0.22-3.293,0.398-5.505c-0.179,0.266-0.354,0.531-0.53,0.796
		c-0.486,0.735-0.846,1.556-1.215,2.354c-0.395,0.854-0.774,1.713-1.172,2.565c-0.227,0.487-0.46,0.971-0.706,1.45
		c-0.204,0.399-0.407,0.798-0.602,1.202c-0.146,0.303-0.286,0.609-0.418,0.918c-0.532,1.33-1.061,2.632-1.315,4.05
		c-0.09,0.504-0.153,1.013-0.193,1.524c-0.008,0.105-0.012,0.214-0.018,0.324c-0.02,0.387-0.065,0.774-0.445,0.986
		c-0.334,0.187-0.785,0.207-1.158,0.242c-0.327,0.031-0.655,0.038-0.983,0.038c-1.15,0-1.99-0.089-2.521-0.266
		c-0.531-0.178-0.862-0.464-0.995-0.862s-0.153-0.862-0.066-1.393c0.089-0.531,0.133-1.148,0.133-1.857
		c0-0.883,0.022-1.9,0.066-3.051c0.045-1.148,0.155-2.564,0.331-4.245h-0.133c0,0-3.09,5.65-4.112,6.5l0.531-0.663
		c0-0.087,0.045-0.286,0.133-0.597c0.089-0.309,0.222-0.464,0.397-0.464l0.531-1.326v0.132h0.132c-0.087,0-0.132-0.087-0.132-0.265
		l-0.398,0.796l-0.398,0.531l-0.397,0.53l-0.53,0.796l-0.398,0.531l-0.266,0.265l-0.53,0.531l-0.397,0.398
		c-0.177,0.266-0.31,0.398-0.398,0.398h-0.133l-0.133,0.133c-0.265,0-0.397-0.176-0.397-0.531l0.397-0.398l-0.133-0.265l0.266-0.398
		l0.398-0.133l0.133-0.531l0.397-0.796l0.133-0.398l0.266-0.663l0.397-0.265l-0.133-0.133l0.398-1.062
		c1.15-2.475,2.41-5.681,3.78-9.617c1.372-3.934,2.631-7.76,3.781-11.475c1.147-3.714,2.122-6.985,2.918-9.817
		c0.796-2.829,1.194-4.421,1.194-4.775c0-0.265,0.132-0.574,0.397-0.929c0.266-0.352,0.929-0.531,1.99-0.531
		c1.768,0,3.071,0.332,3.913,0.995c0.84,0.663,1.26,1.084,1.26,1.26c0,0.885-0.311,2.189-0.928,3.914
		c-0.62,1.724-1.593,4.576-2.919,8.556c-0.709,1.857-1.372,3.893-1.989,6.102c-0.62,2.211-1.107,4.51-1.46,6.898
		c1.148-2.74,2.409-5.439,3.781-8.092c1.37-2.653,2.607-5.084,3.714-7.296c1.104-2.21,2.033-4.023,2.786-5.439
		c0.75-1.414,1.127-2.209,1.127-2.388c0.266-0.442,0.508-0.995,0.73-1.658c0.22-0.664,0.597-0.995,1.127-0.995
		c0.353,0,0.816,0.066,1.394,0.199c0.573,0.132,1.127,0.311,1.658,0.53c0.53,0.222,0.994,0.464,1.393,0.729
		c0.397,0.266,0.597,0.531,0.597,0.796c-0.796,2.035-1.548,4.245-2.255,6.632c-0.62,2.036-1.283,4.444-1.99,7.23
		c-0.709,2.786-1.283,5.771-1.725,8.954c0.973-2.388,2.011-4.885,3.118-7.495c1.104-2.607,2.364-5.283,3.78-8.025
		c0.353-0.618,0.773-1.48,1.26-2.587c0.485-1.104,1.016-2.189,1.593-3.25c0.573-1.061,1.214-1.967,1.923-2.719
		c0.421-0.447,0.922-0.866,1.521-1.043c0.578-0.171,1.22-0.134,1.809-0.043c0.641,0.099,1.276,0.301,1.87,0.559
		c0.788,0.341,2.083,1.074,1.966,2.109c-0.123,1.088-0.404,2.167-0.662,3.23c-0.238,0.983-0.499,1.96-0.79,2.929
		c-0.148,0.496-0.307,0.989-0.474,1.479c-0.663,1.946-1.261,3.936-1.791,5.97c-1.505,4.51-2.566,8.711-3.184,12.602
		c-0.62,3.893-0.929,7.164-0.929,9.816c0,1.681,0.087,2.964,0.266,3.847c0.176,0.883,0.352,1.546,0.53,1.99
		c0.176,0.441,0.353,0.729,0.53,0.862c0.177,0.133,0.266,0.286,0.266,0.464c0,0.176-0.222,0.75-0.663,1.725
		c-0.443,0.972-1.018,1.592-1.725,1.857c0,0.087,0.021,0.133,0.066,0.133c0.043,0,0.066,0.043,0.066,0.133l-0.133-0.266
		c-0.266,0.176-0.53,0.266-0.796,0.266c-1.239,0-2.367-1.062-3.383-3.184c-1.018-2.122-1.525-4.862-1.525-8.225
		c0-2.653,0.331-5.836,0.995-9.551c0.663-3.714,1.834-8.225,3.515-13.531c-0.974,1.771-1.88,3.495-2.719,5.174
		c-0.672,1.345-1.332,2.697-1.955,4.066C86.231,82.347,85.729,83.563,85.245,84.788z M58.288,96.185"/>
	<path fill="#FFFFFF" d="M113.205,101.094 M122.756,85.838 M122.562,81.751c0.19-0.303,0.404-0.632,0.784-0.697
		c0.37-0.063,0.777,0.111,0.995,0.414c0.304,0.423,0.204,0.999,0.086,1.468c-0.226,0.896-0.532,1.775-0.852,2.642
		c-0.207,0.56-0.428,1.114-0.655,1.665c-0.203,0.493-0.418,0.983-0.612,1.48c-0.298,0.766-0.539,1.552-0.851,2.314
		c-0.315,0.767-0.644,1.527-0.953,2.296c-0.186,0.461-0.366,0.924-0.534,1.392c-0.266,0.531-0.53,1.084-0.796,1.658
		c-0.362,0.783-0.823,1.52-1.291,2.247c-0.41,0.636-0.757,1.276-1.382,1.731c-0.61,0.443-1.323,0.715-2.077,0.764
		c-0.362,0.023-0.73-0.009-1.086-0.073c-0.662-0.121-1.366-0.345-1.805-0.886c-0.248-0.305-0.418-0.668-0.543-1.049
		c-0.117-0.358-0.195-0.732-0.259-1.088c-0.087-0.482-0.177-0.966-0.198-1.457c-0.02-0.461,0.02-0.923,0.02-1.385
		c0-0.152-0.08-0.602,0-0.728c-0.619,0.974-1.326,2.145-2.122,3.515c-0.459,0.79-1.014,1.516-1.662,2.161
		c-0.642,0.639-1.354,1.226-2.232,1.496c-0.528,0.162-1.105,0.25-1.656,0.283c-0.676,0.04-1.394,0.024-2.023-0.253
		c-0.296-0.131-0.562-0.301-0.802-0.501c-0.695-0.58-1.167-1.41-1.51-2.251c-0.588-1.441-0.923-2.961-1.193-4.489
		c-0.169-0.956-0.29-1.922-0.332-2.892c-0.021-0.481-0.022-0.964,0.002-1.446c0-3.801,0.397-7.429,1.193-10.877
		c0.796-3.449,1.924-6.61,3.383-9.485c1.459-2.873,2.919-5.35,4.378-7.429c1.459-2.077,2.829-3.692,4.112-4.842
		c1.281-1.148,2.188-1.812,2.72-1.99c0.352-0.176,0.706-0.265,1.061-0.265c0.707,0,1.37,0.576,1.99,1.725
		c0.53,1.061,0.796,1.857,0.796,2.388s-0.179,0.929-0.53,1.194c-0.444,0.443-0.995,0.951-1.658,1.525
		c-0.664,0.576-1.46,1.438-2.389,2.587c-0.928,1.15-1.946,2.676-3.051,4.577c-1.106,1.903-2.277,4.444-3.516,7.627
		c-0.443,1.062-0.862,2.301-1.26,3.714c-0.398,1.416-0.753,2.918-1.062,4.51c-0.311,1.592-0.53,3.207-0.663,4.842
		c-0.133,1.637-0.112,3.25,0.066,4.842c0.087,0.974,0.266,1.548,0.53,1.725c0.266,0.178,0.398,0.222,0.398,0.133
		c0.441-0.266,0.949-0.75,1.525-1.459c0.574-0.707,1.082-1.414,1.525-2.123c0.973-1.502,1.857-3.005,2.653-4.51
		c0.796-1.502,1.546-2.918,2.255-4.245v-0.132c0.087-0.531,0.177-1.062,0.266-1.592c0.087-0.531,0.176-1.062,0.266-1.592
		c0.53-2.475,1.104-4.819,1.724-7.03c0.618-2.21,1.215-4.179,1.791-5.903c0.574-1.725,1.105-3.138,1.592-4.245
		c0.485-1.104,0.862-1.791,1.128-2.056c0.087-0.265,0.309-0.441,0.663-0.531c0.266-0.087,0.574-0.11,0.929-0.066
		c0.353,0.045,0.883,0.288,1.592,0.729c1.679,1.239,2.388,2.123,2.123,2.653c-0.179,0.444-0.378,0.995-0.598,1.658
		c-0.222,0.664-0.53,1.548-0.929,2.653c-0.397,1.107-0.862,2.477-1.393,4.112c-0.53,1.637-1.106,3.693-1.725,6.168
		c-0.443,1.857-1.018,4.025-1.725,6.5c-0.709,2.477-1.283,5.041-1.725,7.694c0,0.354-0.022,0.686-0.066,0.995
		c-0.045,0.311-0.065,0.643-0.065,0.995c0.706-1.062,1.347-2.166,1.923-3.316c0.601-1.201,1.275-2.371,1.837-3.591
		c0.166-0.361,0.324-0.725,0.486-1.088c0.133-0.298,0.275-0.59,0.422-0.881c0.286-0.569,0.587-1.129,0.863-1.705L122.562,81.751z
		 M119.572,87.165 M119.174,88.226l0.133-0.398"/>
</g>
<g>
	<path fill="#FFFFFF" d="M52.447,32.499c0.44,0.22,0.885,0.455,1.335,0.705c0.45,0.25,0.855,0.535,1.215,0.855
		c0.36,0.32,0.655,0.675,0.885,1.065s0.345,0.845,0.345,1.365c0,0.56-0.105,1.085-0.315,1.575c-0.21,0.49-0.495,0.915-0.855,1.275
		c-0.36,0.36-0.785,0.645-1.275,0.855c-0.491,0.21-1.016,0.315-1.575,0.315c-0.56,0-1.085-0.105-1.575-0.315
		c-0.49-0.21-0.915-0.495-1.275-0.855c-0.36-0.36-0.645-0.785-0.855-1.275c-0.21-0.49-0.315-1.015-0.315-1.575h0.99
		c0,0.42,0.08,0.815,0.24,1.185c0.16,0.37,0.375,0.69,0.645,0.96s0.59,0.485,0.96,0.645s0.765,0.24,1.185,0.24
		s0.814-0.08,1.185-0.24c0.37-0.16,0.69-0.375,0.96-0.645s0.485-0.59,0.645-0.96c0.16-0.37,0.24-0.765,0.24-1.185
		c0-0.36-0.09-0.685-0.27-0.975c-0.18-0.29-0.42-0.555-0.72-0.795c-0.3-0.24-0.645-0.465-1.035-0.675s-0.795-0.424-1.215-0.645
		c-0.46-0.22-0.915-0.455-1.365-0.705c-0.45-0.25-0.855-0.53-1.215-0.84c-0.36-0.31-0.655-0.66-0.885-1.05
		c-0.23-0.39-0.345-0.845-0.345-1.365c0-0.56,0.105-1.084,0.315-1.575s0.495-0.915,0.855-1.275c0.36-0.36,0.785-0.645,1.275-0.855
		c0.49-0.21,1.015-0.315,1.575-0.315c0.56,0,1.084,0.105,1.575,0.315c0.49,0.21,0.915,0.495,1.275,0.855
		c0.36,0.36,0.645,0.785,0.855,1.275s0.315,1.015,0.315,1.575h-0.99c0-0.42-0.08-0.814-0.24-1.185c-0.16-0.37-0.375-0.69-0.645-0.96
		s-0.59-0.484-0.96-0.645c-0.371-0.16-0.765-0.24-1.185-0.24s-0.815,0.08-1.185,0.24c-0.37,0.161-0.69,0.375-0.96,0.645
		s-0.485,0.59-0.645,0.96c-0.16,0.371-0.24,0.765-0.24,1.185c0,0.36,0.09,0.686,0.27,0.975c0.18,0.29,0.425,0.555,0.735,0.795
		c0.31,0.24,0.66,0.465,1.05,0.675S52.027,32.299,52.447,32.499z"/>
	<path fill="#FFFFFF" d="M59.167,32.949v3.54c0,0.42,0.07,0.815,0.21,1.185c0.14,0.37,0.33,0.69,0.57,0.96
		c0.24,0.27,0.52,0.485,0.84,0.645s0.66,0.24,1.02,0.24v0.99c-0.5,0-0.97-0.105-1.41-0.315c-0.44-0.21-0.825-0.495-1.155-0.855
		c-0.33-0.36-0.59-0.785-0.78-1.275c-0.19-0.49-0.285-1.015-0.285-1.575v-3.54v-6.39v-0.99v-4.2h0.99v4.2h3.24v0.99h-3.24V32.949z"
		/>
	<path fill="#FFFFFF" d="M71.797,25.569v7.38v3.54v3.87h-0.99v-1.23c-0.38,0.42-0.83,0.755-1.35,1.005
		c-0.521,0.25-1.08,0.375-1.68,0.375c-0.56,0-1.085-0.105-1.575-0.315c-0.49-0.21-0.915-0.495-1.275-0.855
		c-0.36-0.36-0.645-0.785-0.855-1.275c-0.21-0.49-0.315-1.015-0.315-1.575v-3.54v-7.38h0.99v7.38v3.54c0,0.42,0.08,0.815,0.24,1.185
		c0.16,0.37,0.375,0.69,0.645,0.96s0.59,0.485,0.96,0.645s0.765,0.24,1.185,0.24s0.814-0.08,1.185-0.24
		c0.37-0.16,0.69-0.375,0.96-0.645s0.485-0.59,0.645-0.96c0.16-0.37,0.24-0.765,0.24-1.185v-3.54v-7.38H71.797z"/>
	<path fill="#FFFFFF" d="M81.938,18.849v10.59v7.05v3.87h-0.99v-1.23c-0.38,0.42-0.83,0.755-1.35,1.005
		c-0.521,0.25-1.08,0.375-1.68,0.375c-0.56,0-1.085-0.105-1.575-0.315c-0.49-0.21-0.915-0.495-1.275-0.855
		c-0.36-0.36-0.645-0.785-0.855-1.275c-0.21-0.49-0.315-1.015-0.315-1.575v-7.05c0-0.56,0.105-1.084,0.315-1.575
		s0.495-0.915,0.855-1.275c0.36-0.36,0.785-0.645,1.275-0.855c0.49-0.21,1.015-0.315,1.575-0.315c0.6,0,1.16,0.12,1.68,0.36
		c0.52,0.24,0.97,0.58,1.35,1.02v-7.95H81.938z M77.917,39.519c0.42,0,0.814-0.08,1.185-0.24c0.37-0.16,0.69-0.375,0.96-0.645
		s0.485-0.59,0.645-0.96c0.16-0.37,0.24-0.765,0.24-1.185v-7.05c0-0.42-0.08-0.814-0.24-1.185c-0.16-0.37-0.375-0.69-0.645-0.96
		s-0.59-0.484-0.96-0.645c-0.371-0.16-0.765-0.24-1.185-0.24s-0.815,0.08-1.185,0.24c-0.37,0.161-0.69,0.375-0.96,0.645
		s-0.485,0.59-0.645,0.96c-0.16,0.371-0.24,0.765-0.24,1.185v7.05c0,0.42,0.08,0.815,0.24,1.185c0.16,0.37,0.375,0.69,0.645,0.96
		s0.59,0.485,0.96,0.645S77.498,39.519,77.917,39.519z"/>
	<path fill="#FFFFFF" d="M85.057,25.329h0.99v1.02v13.8h-0.99v-13.8h-0.99v-1.02H85.057z M85.297,21.909c-0.22,0-0.4-0.07-0.54-0.21
		c-0.14-0.14-0.21-0.32-0.21-0.54c0-0.22,0.07-0.4,0.21-0.54c0.14-0.14,0.319-0.21,0.54-0.21c0.2,0,0.375,0.07,0.525,0.21
		c0.15,0.14,0.225,0.32,0.225,0.54c0,0.22-0.075,0.4-0.225,0.54C85.672,21.839,85.497,21.909,85.297,21.909z"/>
	<path fill="#FFFFFF" d="M92.167,40.509c-0.56,0-1.085-0.105-1.575-0.315c-0.49-0.21-0.915-0.495-1.275-0.855
		c-0.36-0.36-0.645-0.785-0.855-1.275c-0.21-0.49-0.315-1.015-0.315-1.575v-7.05c0-0.56,0.105-1.084,0.315-1.575
		s0.495-0.915,0.855-1.275c0.36-0.36,0.785-0.645,1.275-0.855c0.49-0.21,1.015-0.315,1.575-0.315c0.56,0,1.084,0.105,1.575,0.315
		c0.49,0.21,0.915,0.495,1.275,0.855c0.36,0.36,0.645,0.785,0.855,1.275s0.315,1.015,0.315,1.575v7.05
		c0,0.56-0.105,1.085-0.315,1.575c-0.21,0.49-0.495,0.915-0.855,1.275c-0.36,0.36-0.785,0.645-1.275,0.855
		C93.251,40.404,92.727,40.509,92.167,40.509z M92.167,26.409c-0.42,0-0.815,0.08-1.185,0.24c-0.37,0.161-0.69,0.375-0.96,0.645
		s-0.485,0.59-0.645,0.96c-0.16,0.371-0.24,0.765-0.24,1.185v7.05c0,0.42,0.08,0.815,0.24,1.185c0.16,0.37,0.375,0.69,0.645,0.96
		s0.59,0.485,0.96,0.645s0.765,0.24,1.185,0.24s0.814-0.08,1.185-0.24c0.37-0.16,0.69-0.375,0.96-0.645s0.485-0.59,0.645-0.96
		c0.16-0.37,0.24-0.765,0.24-1.185v-7.05c0-0.42-0.08-0.814-0.24-1.185c-0.16-0.37-0.375-0.69-0.645-0.96s-0.59-0.484-0.96-0.645
		C92.981,26.489,92.587,26.409,92.167,26.409z"/>
</g>
</svg>


