<?xml version="1.0" encoding="utf-8"?>
<!-- Generator: Adobe Illustrator 21.0.0, SVG Export Plug-In . SVG Version: 6.00 Build 0)  -->
<svg version="1.1" id="Layer_1" xmlns="http://www.w3.org/2000/svg" xmlns:xlink="http://www.w3.org/1999/xlink" x="0px" y="0px"
	 viewBox="0 0 248.5 154.5" style="enable-background:new 0 0 248.5 154.5;" xml:space="preserve">
<style type="text/css">
	.st0{fill:none;stroke:#000000;stroke-width:3;stroke-miterlimit:10;}
	.st1{font-family:'HelveticaNeue';}
	.st2{font-size:24px;}
</style>
<g>
	<polyline class="st0" points="193.5,131.1 193.5,146.4 5.1,146.4 5.1,5 193.5,5 193.5,84 	"/>
	<g>
		<path d="M112.7,90.9c0-0.5,0.4-0.9,0.9-0.9h4.4c0.5,0,0.9,0.4,0.9,0.9v12.5h15.3V90.9c0-0.5,0.4-0.9,0.9-0.9h4.3
			c0.5,0,0.9,0.4,0.9,0.9v31.2c0,0.5-0.4,0.9-0.9,0.9h-4.3c-0.5,0-0.9-0.4-0.9-0.9v-13h-15.3v13c0,0.5-0.4,0.9-0.9,0.9h-4.4
			c-0.5,0-0.9-0.4-0.9-0.9V90.9z"/>
		<path d="M148.9,90.9c0-0.5,0.4-0.9,0.9-0.9h19.2c0.5,0,0.9,0.4,0.9,0.9v3.9c0,0.5-0.4,0.9-0.9,0.9H155v7.7h11.6
			c0.5,0,0.9,0.4,0.9,0.9v3.9c0,0.5-0.4,0.9-0.9,0.9H155v8.2h13.9c0.5,0,0.9,0.4,0.9,0.9v3.9c0,0.5-0.4,0.9-0.9,0.9h-19.2
			c-0.5,0-0.9-0.4-0.9-0.9V90.9z"/>
		<path d="M180,90.3c0-0.4,0.3-0.7,0.8-0.7h0.8c0.4,0,0.7,0.2,0.8,0.5l10.4,22.2c0.1,0,0.1,0,0.1,0L203.3,90
			c0.1-0.3,0.4-0.5,0.8-0.5h0.8c0.5,0,0.8,0.3,0.8,0.7l5.6,31.6c0.1,0.7-0.2,1.1-0.9,1.1h-4.3c-0.4,0-0.8-0.4-0.9-0.7l-2.8-17.8
			c0,0-0.1,0-0.1,0l-8.2,18.5c-0.1,0.3-0.4,0.5-0.8,0.5h-0.8c-0.4,0-0.7-0.2-0.8-0.5l-8.3-18.5c0,0-0.1,0-0.1,0l-2.7,17.8
			c0,0.3-0.4,0.7-0.8,0.7h-4.2c-0.6,0-1-0.4-0.9-1.1L180,90.3z"/>
		<path d="M213.4,121.8L228,90.1c0.1-0.3,0.4-0.5,0.8-0.5h0.5c0.5,0,0.7,0.2,0.8,0.5l14.5,31.7c0.3,0.6-0.1,1.2-0.8,1.2h-4.1
			c-0.7,0-1-0.3-1.4-0.9l-2.3-5.1H222l-2.3,5.1c-0.2,0.5-0.6,0.9-1.4,0.9h-4.1C213.5,123,213.1,122.4,213.4,121.8z M233.7,111.7
			l-4.7-10.4h-0.1l-4.6,10.4H233.7z"/>
	</g>
	<text transform="matrix(1 0 0 1 111.6665 77.4756)" class="st1 st2">studio</text>
</g>
</svg>
