<?xml version="1.0" encoding="UTF-8"?>
<svg width="36px" height="36px" viewBox="0 0 36 36" version="1.1" xmlns="http://www.w3.org/2000/svg" xmlns:xlink="http://www.w3.org/1999/xlink">
    <!-- Generator: Sketch 50.2 (55047) - http://www.bohemiancoding.com/sketch -->
    <title>skype</title>
    <desc>Created with Sketch.</desc>
    <defs></defs>
    <g id="Biblioteca" stroke="none" stroke-width="1" fill="none" fill-rule="evenodd">
        <g id="redes_sociais" transform="translate(-56.000000, 0.000000)" fill="#000000">
            <path d="M74,0 C81.7982772,0 88.7088115,5.0213946 91.117928,12.4371512 C93.5270446,19.8529078 90.8885669,27.9782272 84.5803118,32.560683 C78.2704066,37.146439 69.7295934,37.146439 63.4196882,32.560683 C57.1114331,27.9782272 54.4729554,19.8529078 56.882072,12.4371512 C59.2911885,5.0213946 66.2017228,0 74,0 Z M81.9284685,19.4174343 C81.9977719,18.9916966 82.0340736,18.5527577 82.0340736,18.1072182 C82.0340736,13.6188208 78.3972977,9.98024867 73.9090806,9.98024867 C73.4635591,9.98024867 73.027938,10.0149017 72.6005673,10.0842079 C71.8580314,9.58751389 70.9636881,9.30038847 70.0000415,9.30038847 C67.406116,9.30038847 65.3006142,11.4043248 65.3006142,14.0000046 C65.3006142,14.8795325 65.5415259,15.7013052 65.9622962,16.4026173 C65.8434905,16.952116 65.7824375,17.5214164 65.7824375,18.1072182 C65.7824375,22.5923154 69.4208635,26.2308875 73.9090806,26.2308875 C74.4932089,26.2308875 75.0674366,26.168182 75.6185633,26.0526717 C76.3165471,26.4635581 77.1316865,26.7011792 77.9996285,26.7011792 C80.5968541,26.7011792 82.7007059,24.5955927 82.7007059,21.9999129 C82.7007059,21.0461285 82.4168921,20.1583499 81.9284685,19.4174343 Z M76.3792501,22.7523795 C75.2489454,23.2672251 73.5724643,23.277126 72.3926573,22.9966012 C70.734327,22.5989159 69.9917911,21.6533822 69.8564846,20.894315 C69.6469244,19.7260116 70.9801889,19.3101748 71.6781727,20.1253469 C71.8382304,20.3118134 71.9834375,20.5081808 72.1418451,20.6962975 C73.0625897,21.7837438 75.0311349,21.6781344 75.6664156,20.803557 C75.922178,20.4504257 75.9188778,19.9784839 75.6565151,19.6435043 C75.3628009,19.2722214 75.032785,19.2738715 72.2276493,18.5610084 C69.5033675,17.8695972 69.5495697,15.450483 70.341608,14.2706285 C70.981839,13.3102435 72.2276493,12.9274096 73.3860053,12.8383017 C75.3760016,12.6864883 77.5623573,13.6303719 77.762017,14.9257365 C77.844521,15.4537833 77.5640074,15.8696201 77.0376319,15.9900808 C76.2851955,16.1649963 76.0277831,15.6848038 75.611963,15.2425646 C74.7539215,14.3283837 73.0807405,14.4125411 72.4784614,14.9141855 C72.0230394,15.292069 71.953736,15.9438767 72.3926573,16.3003083 C73.090641,16.8613579 75.384252,17.0131714 76.4997059,17.5065651 C77.6564119,18.0164602 78.195988,18.9223904 78.1877376,20.0081866 C78.1794872,21.3134521 77.5574071,22.2193823 76.3792501,22.7523795 Z" id="skype"></path>
        </g>
    </g>
</svg>