<?xml version="1.0" encoding="UTF-8"?>
<svg width="36px" height="36px" viewBox="0 0 36 36" version="1.1" xmlns="http://www.w3.org/2000/svg" xmlns:xlink="http://www.w3.org/1999/xlink">
    <!-- Generator: Sketch 50.2 (55047) - http://www.bohemiancoding.com/sketch -->
    <title>skype</title>
    <desc>Created with Sketch.</desc>
    <defs></defs>
    <g id="Page-1" stroke="none" stroke-width="1" fill="none" fill-rule="evenodd">
        <g id="skype">
            <path d="M18,0 C25.7982772,0 32.7088115,5.0213946 35.117928,12.4371512 C37.5270446,19.8529078 34.8885669,27.9782272 28.5803118,32.560683 C22.2704066,37.146439 13.7295934,37.146439 7.4196882,32.560683 C1.1114331,27.9782272 -1.5270446,19.8529078 0.882072,12.4371512 C3.2911885,5.0213946 10.2017228,0 18,0 Z" id="skype-path" fill="#FFFFFF"></path>
            <path d="M25.9284685,19.4174343 C25.9977719,18.9916966 26.0340736,18.5527577 26.0340736,18.1072182 C26.0340736,13.6188208 22.3972977,9.98024867 17.9090806,9.98024867 C17.4635591,9.98024867 17.027938,10.0149017 16.6005673,10.0842079 C15.8580314,9.58751389 14.9636881,9.30038847 14.0000415,9.30038847 C11.406116,9.30038847 9.3006142,11.4043248 9.3006142,14.0000046 C9.3006142,14.8795325 9.5415259,15.7013052 9.9622962,16.4026173 C9.8434905,16.952116 9.7824375,17.5214164 9.7824375,18.1072182 C9.7824375,22.5923154 13.4208635,26.2308875 17.9090806,26.2308875 C18.4932089,26.2308875 19.0674366,26.168182 19.6185633,26.0526717 C20.3165471,26.4635581 21.1316865,26.7011792 21.9996285,26.7011792 C24.5968541,26.7011792 26.7007059,24.5955927 26.7007059,21.9999129 C26.7007059,21.0461285 26.4168921,20.1583499 25.9284685,19.4174343 Z M20.3792501,22.7523795 C19.2489454,23.2672251 17.5724643,23.277126 16.3926573,22.9966012 C14.734327,22.5989159 13.9917911,21.6533822 13.8564846,20.894315 C13.6469244,19.7260116 14.9801889,19.3101748 15.6781727,20.1253469 C15.8382304,20.3118134 15.9834375,20.5081808 16.1418451,20.6962975 C17.0625897,21.7837438 19.0311349,21.6781344 19.6664156,20.803557 C19.922178,20.4504257 19.9188778,19.9784839 19.6565151,19.6435043 C19.3628009,19.2722214 19.032785,19.2738715 16.2276493,18.5610084 C13.5033675,17.8695972 13.5495697,15.450483 14.341608,14.2706285 C14.981839,13.3102435 16.2276493,12.9274096 17.3860053,12.8383017 C19.3760016,12.6864883 21.5623573,13.6303719 21.762017,14.9257365 C21.844521,15.4537833 21.5640074,15.8696201 21.0376319,15.9900808 C20.2851955,16.1649963 20.0277831,15.6848038 19.611963,15.2425646 C18.7539215,14.3283837 17.0807405,14.4125411 16.4784614,14.9141855 C16.0230394,15.292069 15.953736,15.9438767 16.3926573,16.3003083 C17.090641,16.8613579 19.384252,17.0131714 20.4997059,17.5065651 C21.6564119,18.0164602 22.195988,18.9223904 22.1877376,20.0081866 C22.1794872,21.3134521 21.5574071,22.2193823 20.3792501,22.7523795 Z" fill="#070707" fill-rule="nonzero"></path>
        </g>
    </g>
</svg>