<?xml version="1.0" encoding="UTF-8"?>
<svg width="36px" height="36px" viewBox="0 0 36 36" version="1.1" xmlns="http://www.w3.org/2000/svg" xmlns:xlink="http://www.w3.org/1999/xlink">
    <!-- Generator: Sketch 50.2 (55047) - http://www.bohemiancoding.com/sketch -->
    <title>whatsapp</title>
    <desc>Created with Sketch.</desc>
    <defs></defs>
    <g id="Page-1" stroke="none" stroke-width="1" fill="none" fill-rule="evenodd">
        <g id="whatsapp">
            <path d="M18,0 C25.7982772,0 32.7088115,5.0213946 35.117928,12.4371512 C37.5270446,19.8529078 34.8885669,27.9782272 28.5803118,32.560683 C22.2704066,37.146439 13.7295934,37.146439 7.41968821,32.560683 C1.11143311,27.9782272 -1.52704459,19.8529078 0.882072007,12.4371512 C3.29118851,5.0213946 10.2017228,0 18,0 Z" id="whats" fill="#000000" fill-rule="nonzero"></path>
            <path d="M18.1899996,10 C13.6631455,10 10,13.6611127 10,18.1900027 C10,19.897965 10.5208556,21.4778153 11.4460469,22.8352663 C11.5158083,22.9386519 11.5346514,23.0681943 11.4972344,23.18717 L10.6654376,25.9704993 L13.3911718,25.0299192 C13.5091923,24.9906291 13.6386734,25.0071123 13.7430858,25.0747185 C15.0198126,25.9031366 16.5482241,26.3799992 18.1899996,26.3799992 C22.7189979,26.3799992 26.3799992,22.7189888 26.3799992,18.1900027 C26.3799992,13.6609899 22.7189979,10 18.1899996,10 Z M14.8372186,13.5703266 L16.3280544,16.0337342 L15.707406,16.647984 C15.5775192,16.7790373 15.5513197,16.9807696 15.6434217,17.1406532 C16.5905584,18.780829 17.7127645,20.0568509 19.2841324,20.7493766 C19.4382421,20.817835 19.6185605,20.7848231 19.7384214,20.6662071 L20.3974604,20.0071581 L22.8032728,21.5108005 C22.5368748,22.1103492 22.1895859,22.4673102 21.7923197,22.6752952 C21.3321585,22.9162449 20.7701179,22.9618632 20.1287261,22.8288576 C18.8459451,22.562867 17.2964443,21.5546989 16.0337263,20.2630955 C14.7710088,18.9715126 13.7938433,17.4009518 13.5447343,16.1232918 C13.4201808,15.4844721 13.4752053,14.9343091 13.7110936,14.4981099 C13.9142015,14.1225371 14.2592053,13.8009979 14.8372186,13.5703266 Z" id="whats" fill="#FFFFFF"></path>
        </g>
    </g>
</svg>