<?xml version="1.0" encoding="UTF-8"?>
<svg width="36px" height="36px" viewBox="0 0 36 36" version="1.1" xmlns="http://www.w3.org/2000/svg" xmlns:xlink="http://www.w3.org/1999/xlink">
    <!-- Generator: Sketch 50.2 (55047) - http://www.bohemiancoding.com/sketch -->
    <title>whatsapp</title>
    <desc>Created with Sketch.</desc>
    <defs></defs>
    <g id="Page-1" stroke="none" stroke-width="1" fill="none" fill-rule="evenodd">
        <g id="whatsapp">
            <path d="M18,0 C25.7982772,0 32.7088115,5.0213946 35.117928,12.4371512 C37.5270446,19.8529078 34.8885669,27.9782272 28.5803118,32.560683 C22.2704066,37.146439 13.7295934,37.146439 7.4196882,32.560683 C1.1114331,27.9782272 -1.5270446,19.8529078 0.882072,12.4371512 C3.2911885,5.0213946 10.2017228,0 18,0 Z" id="whats" fill="#CCA69A" fill-rule="nonzero"></path>
            <path d="M18.0000003,9.81250933 C13.4745263,9.81250933 9.8124976,13.4725072 9.8124976,18.0000181 C9.8124976,19.7074603 10.3331944,21.2868296 11.2581036,22.6438672 C11.3278438,22.7472213 11.3466811,22.8767243 11.3092755,22.9956637 L10.4777323,25.7781455 L13.2026355,24.8378518 C13.32062,24.7985737 13.4500617,24.8150519 13.5544423,24.8826374 C14.8307797,25.7108033 16.3587253,26.1875207 18.0000003,26.1875207 C22.5276178,26.1875207 26.1875029,22.5276251 26.1875029,18.0000181 C26.1875029,13.4723844 22.5276178,9.81250933 18.0000003,9.81250933 Z M14.6482414,13.3817487 L16.1386228,15.8444062 L15.5181636,16.4584689 C15.3883164,16.5894824 15.3621248,16.7911532 15.4541987,16.9509882 C16.4010467,18.5906645 17.5229106,19.8662979 19.0937995,20.5586126 C19.2478622,20.6270502 19.4281256,20.5940483 19.54795,20.4754685 L20.2067881,19.8166202 L22.611867,21.3198047 C22.3455503,21.9191709 21.9983672,22.2760232 21.6012221,22.4839448 C21.1412012,22.7248211 20.579332,22.7704255 19.9381357,22.6374605 C18.6557458,22.3715509 17.1067174,21.3636898 15.8443844,20.0724797 C14.5820518,18.78129 13.6051843,17.2112075 13.3561512,15.9339366 C13.2316356,15.2953114 13.2866434,14.7453159 13.5224598,14.3092495 C13.7255058,13.9337911 14.0704043,13.6123498 14.6482414,13.3817487 Z" id="whats" fill="#FFFFFF"></path>
        </g>
    </g>
</svg>